<svg width="34" height="31" viewBox="0 0 34 31" fill="none" xmlns="http://www.w3.org/2000/svg">
<ellipse cx="17.0909" cy="21.4546" rx="13.0909" ry="6.54545" fill="#D9D9D9"/>
<ellipse cx="17.0909" cy="16.3636" rx="13.0909" ry="4.36364" fill="#D9D9D9"/>
<path d="M11.6385 15.6514H12.0032" stroke="#7CA164" stroke-width="1.45455" stroke-linecap="round"/>
<path d="M14.2644 14.1925C14.3945 14.0885 14.9254 14.1196 14.7588 14.1196C14.5563 14.1196 14.3343 14.1399 14.3941 14.3789C14.4614 14.6483 15.0476 14.3986 14.6291 14.1196" stroke="#7CA164" stroke-width="1.45455" stroke-linecap="round"/>
<path d="M24.6951 14.0467C24.6951 14.112 24.6949 14.6327 24.7316 14.6181C24.9571 14.5279 24.6204 14.2655 25.0598 14.2655" stroke="#7CA164" stroke-width="1.45455" stroke-linecap="round"/>
<path d="M20.179 18C19.7763 18 20.179 18.5318 20.179 18.1459" stroke="#7CA164" stroke-width="1.45455" stroke-linecap="round"/>
<path d="M9.12537 17.2571C8.81773 17.2913 8.41426 17.2873 8.11584 17.3619C7.98693 17.3941 7.98989 17.3282 8.01108 17.1905C8.04384 16.9775 8.46324 17.0148 8.61108 17" stroke="#7CA164" stroke-width="1.70925" stroke-linecap="round"/>
<path d="M14.1915 17.475C14.1915 17.8114 14.6138 17.4922 14.6129 17.4912C14.4368 17.2931 14.1915 17.4568 14.1915 17.1103" stroke="#7CA164" stroke-width="1.45455" stroke-linecap="round"/>
<path d="M22.8716 17.329C22.8716 17.5217 22.8461 17.6208 23.0539 17.6208C23.1261 17.6208 23.3739 17.6208 23.1633 17.6208" stroke="#7CA164" stroke-width="1.45455" stroke-linecap="round"/>
<path d="M19.9539 15.5055C20.1829 15.5055 20.2721 15.4919 20.3186 15.7243" stroke="#7CA164" stroke-width="1.45455" stroke-linecap="round"/>
<path d="M16 16C16.0084 16.0672 16.0237 16.0483 16.0729 16.0729" stroke="#CF6C66" stroke-width="1.45455" stroke-linecap="round"/>
<path d="M21.1526 14C20.6895 14 21.4265 14.4138 21.4444 14.4377" stroke="#CF6C66" stroke-width="1.45455" stroke-linecap="round"/>
<path d="M17.3647 14C17.2966 14.0204 16.9756 14.2778 17.1135 14.3566C17.2196 14.4173 17.4361 14.2673 17 14.2188" stroke="#CF6C66" stroke-width="1.45455" stroke-linecap="round"/>
<path d="M17 18.1554C17.0855 18.2494 17.2188 18.5221 17.2188 18.2607C17.2188 18.2071 17.2188 17.839 17.2188 18.0824" stroke="#CF6C66" stroke-width="1.45455" stroke-linecap="round"/>
<path d="M25 17C25.2892 17.0161 25.2634 17.0729 25 17.0729" stroke="#CF6C66" stroke-width="1.45455" stroke-linecap="round"/>
<path d="M29.4545 16.3636C29.4545 16.6478 29.2825 17.0342 28.7029 17.491C28.1316 17.9412 27.2597 18.3785 26.1176 18.7592C23.8409 19.5181 20.6494 20 17.0909 20C13.5324 20 10.3409 19.5181 8.06422 18.7592C6.92208 18.3785 6.05026 17.9412 5.47891 17.491C4.89936 17.0342 4.72727 16.6478 4.72727 16.3636C4.72727 16.0795 4.89936 15.6931 5.47891 15.2363C6.05026 14.786 6.92208 14.3487 8.06422 13.968C10.3409 13.2091 13.5324 12.7273 17.0909 12.7273C20.6494 12.7273 23.8409 13.2091 26.1176 13.968C27.2597 14.3487 28.1316 14.786 28.7029 15.2363C29.2825 15.6931 29.4545 16.0795 29.4545 16.3636Z" fill="#D9D9D9" fill-opacity="0.36" stroke="#89A670" stroke-width="1.45455"/>
</svg>
