<svg width="34" height="31" viewBox="0 0 34 31" fill="none" xmlns="http://www.w3.org/2000/svg">
<path d="M12.6106 20.3628C12.6106 19.1463 12.6106 17.9298 12.6106 16.7132C12.6106 16.3608 12.5173 16.0318 12.5103 15.6768C12.5046 15.3882 12.368 15.1309 12.3599 14.8466C12.3546 14.6629 12.2825 14.4573 12.2317 14.2838C12.1418 13.9772 12.1409 13.6475 11.9587 13.3923" stroke="#74A055" stroke-linecap="round"/>
<rect x="7" y="12" width="19" height="11" fill="#ADC782"/>
<path d="M13.2468 15C12.7813 15 12.3048 15.0442 11.8327 15.0442C11.6183 15.0442 11.4007 15.0361 11.1867 15.0466C10.8611 15.0627 10.6468 15.2271 10.351 15.3069C9.88743 15.4318 9.62794 15.3873 9.28723 15.6628C9.09286 15.82 8.90905 16.0719 9.0494 16.2863C9.32468 16.7068 10.038 17.2463 10.6885 17.2977C10.8254 17.3085 11.014 17.4022 11.161 17.4303C11.3963 17.4752 11.6176 17.4744 11.8584 17.4744C12.2079 17.4744 12.5597 17.5876 12.8676 17.7052C13.1891 17.828 13.5175 18.0053 13.7225 18.2256C14.0334 18.5598 13.9989 18.9322 13.9989 19.3229C13.9989 19.5618 13.9193 19.6378 13.6389 19.7623C13.4837 19.8312 13.3072 19.7959 13.1536 19.863C12.9523 19.9508 12.6707 19.9789 12.4401 19.9906C12.0563 20.0102 11.6646 19.9931 11.2799 19.9931C10.947 19.9931 10.551 20.0224 10.2514 19.8851C10.1397 19.8339 9.13242 19.2861 9.42864 19.2861" stroke="#74A055" stroke-linecap="round"/>
<path d="M11 13C11 13.3475 11 13.6597 11 14" stroke="#74A055" stroke-linecap="round"/>
<path d="M12 20C11.2921 20.2124 11.7789 20.7728 11.4206 21.0714C11.0391 21.3893 11 21.6196 11 22" stroke="#74A055" stroke-linecap="round"/>
<rect x="15" y="12" width="4" height="11" fill="#FDEDB4"/>
<ellipse cx="22" cy="17.5" rx="2" ry="2.5" fill="#7CB55A"/>
</svg>
