<svg width="34" height="31" viewBox="0 0 34 31" fill="none" xmlns="http://www.w3.org/2000/svg">
<g clip-path="url(#clip0_1_12)">
<path d="M3.91738 4.74926C3.89081 5.38695 3.75074 5.82011 4.04275 6.40413C4.32364 6.96591 4.66851 7.5391 5.00391 8.07014C5.66694 9.11993 6.5145 10.267 7.489 11.0316C8.74116 12.0141 10.255 12.7841 11.7515 13.3189C12.1453 13.4596 12.6138 13.6755 13.0442 13.6755" stroke="#7CA164" stroke-linecap="round"/>
<path d="M4.3186 4.79941C6.25505 5.44489 8.29463 6.14385 9.84876 7.50737C10.4092 7.99908 10.9076 8.56244 11.239 9.23467C11.4964 9.75694 11.7172 10.2757 11.9912 10.7948C12.0849 10.9724 12.2163 11.1281 12.306 11.3074C12.3719 11.4392 12.3569 11.5622 12.4453 11.6947C12.5844 11.9033 12.6366 12.0655 12.7545 12.2825C12.9018 12.5535 13.1172 12.8836 13.1418 13.1908C13.1608 13.4291 13.317 13.6229 13.3452 13.8761" stroke="#7CA164" stroke-linecap="round"/>
<path d="M13.295 14.3776C13.3364 15.0406 13.5206 15.7013 13.6739 16.3445C13.8171 16.9454 13.848 17.5618 13.9803 18.1665C14.1529 18.9549 14.3007 19.7447 14.4372 20.5401C14.5878 21.4174 14.8386 22.2717 14.9694 23.1562C15.1249 24.2082 15.1003 25.2522 15.1003 26.3127C15.1003 26.6798 15.1 27.04 15.0501 27.4048C15.0054 27.7319 15.0584 28.0907 14.9944 28.4105C14.9767 28.499 14.8889 28.5684 14.8551 28.6529C14.8115 28.762 14.8186 28.8876 14.7688 28.9928C14.6614 29.2195 14.546 29.4557 14.4233 29.6754C14.2331 30.0157 14.062 30.3892 13.7073 30.5919C13.6569 30.6208 13.4854 30.6218 13.4566 30.6867C13.4237 30.7606 13.6152 30.7257 13.6962 30.7257C14.0023 30.7257 14.2405 30.6665 14.4428 30.4136C14.6846 30.1114 14.7796 29.7318 14.9499 29.3912C15.0685 29.1538 15.2139 28.9418 15.2953 28.6863C15.3818 28.4149 15.4154 28.1327 15.4792 27.8561C15.5259 27.6538 15.6421 27.4633 15.6519 27.2543C15.7077 26.0643 15.7522 24.8725 15.7522 23.6799C15.7522 22.9675 15.8011 22.2447 15.6631 21.5431C15.5193 20.8122 15.4322 20.0698 15.273 19.3422C15.1696 18.8695 15.0037 18.4452 14.9248 17.9631C14.8129 17.2794 14.6757 16.6747 14.4484 16.0269C14.2667 15.5092 14.042 15.0748 13.7992 14.5893C13.7175 14.4258 13.6419 14.2724 13.568 14.1046C13.4946 13.9378 13.3451 13.9158 13.3451 13.7257" stroke="#7CA164" stroke-linecap="round"/>
<path d="M14.3481 18.8909C14.3481 19.2202 14.4952 19.416 14.5765 19.7155C14.6297 19.9114 14.647 20.09 14.7214 20.2783C14.8204 20.5288 14.7829 20.7624 14.8106 21.0249C14.8642 21.5346 15.0884 22.0499 15.3009 22.5015" stroke="#7CA164" stroke-linecap="round"/>
<path d="M4.3186 5.40118C4.94543 5.68847 5.43953 6.23515 6.01247 6.61029C6.72565 7.07725 7.54262 7.39105 8.29697 7.7804C9.08815 8.18875 9.97966 8.69623 10.5592 9.39905C10.9344 9.85413 11.1701 10.4432 11.4563 10.9564C11.6278 11.2639 11.7681 11.6073 11.8658 11.9454C11.8999 12.0634 11.952 12.3716 12.0859 12.4385C12.1154 12.4533 12.0652 12.3757 12.0497 12.3466C11.4345 11.1932 12.6757 13.5327 11.6931 11.678C11.3759 11.0792 11.0563 10.4875 10.6678 9.93117C10.1476 9.18616 9.58428 8.4947 8.98789 7.81104C8.76765 7.55857 8.54222 7.20497 8.21896 7.06719C7.9827 6.96648 7.7507 6.96291 7.50018 6.95575C7.28181 6.94951 7.08888 6.83588 6.87613 6.79416C6.62403 6.74473 6.41103 6.5586 6.16292 6.48771C6.08021 6.46407 6.0415 6.46219 5.96233 6.45427C5.94015 6.45206 6.00704 6.45181 6.02919 6.45427C6.42557 6.49832 6.78522 6.73223 7.12129 6.92789C8.87312 7.94779 10.3618 9.31656 11.4786 11.0177C11.7353 11.4088 12.0694 11.814 12.2558 12.2435C12.3234 12.3993 12.3397 12.5709 12.423 12.7199C12.4801 12.8221 12.556 12.907 12.5902 13.0208C12.6306 13.1555 12.8786 13.6103 12.5707 13.5223C11.9815 13.3539 11.851 12.6382 11.4618 12.2491C11.0412 11.8285 10.7099 11.4249 10.3976 10.9007C9.85009 9.98165 9.02233 9.23001 8.23011 8.51589C7.81058 8.13772 7.29589 7.82752 6.90956 7.41543C6.83756 7.33864 6.74314 7.32152 6.64489 7.28449C6.21063 7.12086 5.77761 6.95447 5.34106 6.79695C5.13739 6.72346 4.93442 6.66062 4.756 6.53507C4.69972 6.49546 4.61114 6.41835 4.65849 6.55178C4.80342 6.96023 5.09257 7.30628 5.26862 7.70239C5.38259 7.95882 5.50603 8.09654 5.74224 8.25401C6.01897 8.4385 6.18521 8.70853 6.4248 8.931C6.6952 9.18209 7.03263 9.41221 7.2383 9.71386C7.39959 9.95041 7.67872 10.0648 7.8735 10.2766C8.05915 10.4786 8.32508 10.7818 8.57 10.9063C8.85008 11.0486 9.10105 11.2406 9.36678 11.4077C9.75158 11.6497 10.1753 11.8322 10.548 12.0931C10.7907 12.2629 11.1225 12.3642 11.3393 12.55C11.4063 12.6074 11.3655 12.6418 11.2891 12.6113C10.8564 12.4382 10.4736 12.1289 10.1524 11.7894C9.90094 11.5236 9.63329 11.2176 9.46429 10.8895C9.3488 10.6654 9.31341 10.4461 9.12998 10.2627C8.79198 9.9247 8.63433 9.46946 8.24682 9.15945C7.90311 8.88449 7.52955 8.62102 7.1993 8.3348C6.88669 8.06388 6.54564 7.81773 6.19078 7.61324C6.01104 7.50966 5.74363 7.34866 5.64473 7.15634C5.51292 6.90004 6.16339 7.27773 6.17963 7.29007C7.01187 7.9223 7.3341 8.99166 7.96823 9.79187C8.07936 9.9321 8.28869 10.0375 8.34155 10.2042C8.39391 10.3693 8.52998 10.3705 8.68144 10.4159" stroke="#7CA164" stroke-linecap="round"/>
<path d="M14.6991 15.4808C15.418 15.3658 16.0246 14.6882 16.6827 14.3943C17.0358 14.2366 17.3552 14.0655 17.7219 13.929C18.0221 13.8173 18.2638 13.6238 18.5549 13.5056C18.8715 13.377 19.1461 13.1419 19.4743 13.0459C19.7614 12.9618 19.7111 12.8834 19.7389 12.589C19.7744 12.2124 19.7404 11.8289 19.8253 11.4579C19.9189 11.0489 20.0599 10.6023 20.2097 10.2098C20.4376 9.6127 20.6315 9.00028 20.9787 8.46018C21.3927 7.81619 21.9869 7.16301 22.6391 6.75238C22.9238 6.57311 23.2074 6.39314 23.4916 6.21469C23.7083 6.07864 24.0729 6.12688 24.3163 6.10325C24.7811 6.05812 25.2429 6.0531 25.7093 6.0531C25.8905 6.0531 26.0601 6.16444 26.2163 6.24255C26.6978 6.48332 27.1663 6.74571 27.6371 7.0059" stroke="#7CA164" stroke-linecap="round"/>
<path d="M27.6873 7.45723C27.6873 7.82684 27.6873 8.19644 27.6873 8.56605C27.6873 8.97253 27.7589 9.45413 27.5647 9.82531C27.4677 10.0108 27.427 10.2265 27.3251 10.4048C27.2204 10.5881 27.0438 10.7288 26.8989 10.8784C26.4031 11.3902 25.7704 11.718 25.1465 12.0429C24.6228 12.3157 24.0408 12.5192 23.4889 12.7199C22.915 12.9286 22.305 12.9233 21.7031 12.9233C21.3294 12.9233 20.9933 13.0307 20.6249 13.096C20.4141 13.1334 20.2025 13.1729 19.9953 13.227C19.8865 13.2554 19.8321 13.3245 19.7139 13.3245" stroke="#7CA164" stroke-linecap="round"/>
<path d="M19.7139 11.469C19.346 11.7788 18.9908 12.0806 18.6496 12.4218C17.9661 13.1054 17.1889 13.6363 16.3596 14.1268C15.6155 14.5669 14.8494 14.9021 14.0249 15.1632C13.6414 15.2847 13.8075 15.2857 14.0973 15.4307" stroke="#7CA164" stroke-linecap="round"/>
<path d="M19.764 13.4248C20.951 12.1785 21.7376 10.6923 22.5026 9.16225C22.7253 8.71689 22.9808 8.27601 23.2465 7.85841C23.3838 7.64266 23.9492 7.498 24.1993 7.44609C24.4685 7.39022 24.7065 7.29389 24.9822 7.25943C25.2136 7.23049 25.4617 7.25664 25.6954 7.25664C26.1964 7.25664 24.7055 7.41891 24.2188 7.53802C23.3539 7.74972 22.559 8.20969 21.8479 8.73878C21.3472 9.11132 21.1652 9.71659 20.8979 10.2599C20.6941 10.6743 20.4219 11.1599 20.3268 11.6195C20.285 11.8214 20.2514 12.0334 20.2265 12.238C20.2263 12.2397 20.183 12.4429 20.2349 12.3243C20.4581 11.8141 20.7394 11.3316 21.0038 10.8422C21.4992 9.92502 21.8659 8.86604 22.472 8.01443C22.7943 7.56158 23.1041 7.3346 23.6003 7.08391C24.0417 6.86096 24.7124 6.56141 25.1967 6.85546C25.4516 7.01021 25.8232 6.99858 26.0993 7.15635C26.2754 7.25695 26.4273 7.42489 26.6342 7.45445C26.9572 7.50058 26.9939 7.5695 27.0772 7.97542C27.1557 8.35789 27.2105 8.89453 27.0633 9.26811C26.8713 9.75538 26.4273 10.1505 26.0436 10.4884C25.6547 10.8309 25.2812 11.1482 24.8457 11.43C24.2103 11.8412 23.4388 11.8401 22.7311 11.9984C22.1658 12.1248 21.5924 12.3215 21.0066 12.3215C20.5112 12.3215 22.0085 12.2802 22.4804 12.1293C23.2962 11.8685 24.0329 11.3905 24.6952 10.8561C25.3758 10.307 25.8938 9.62168 26.364 8.89201C26.4487 8.76053 26.7613 8.44696 26.612 8.49361C26.4841 8.53357 26.4247 8.68535 26.3278 8.77778C25.9597 9.12873 25.6601 9.39451 25.2357 9.69715C23.8213 10.7058 22.1531 11.4031 20.5385 12.0374C20.4086 12.0884 21.2632 11.8774 21.3298 11.8535C22.1051 11.575 22.8048 11.2002 23.4694 10.7168C24.0178 10.318 24.6104 9.8288 24.9905 9.26254C25.179 8.98175 25.3814 8.69349 25.5811 8.42118C25.681 8.28497 25.8158 8.20236 25.9043 8.059C25.9426 7.997 26.1494 7.84007 26.1216 8.01443C26.025 8.62084 25.667 9.20893 25.1437 9.52721C24.9045 9.67275 24.6464 9.7866 24.3832 9.88103C24.08 9.98981 24.1603 9.95038 24.3776 9.73058C24.7113 9.39312 25.0143 9.03772 25.2914 8.65241C25.4333 8.45521 25.9263 7.94999 25.7065 8.05343C25.4391 8.17928 25.175 8.41247 24.9181 8.5549C24.3173 8.88797 23.6887 9.16619 23.0793 9.48263C23.0224 9.51222 21.9865 9.99483 22.043 10.2321C22.0795 10.3856 22.3315 10.1011 22.4636 10.0148C23.3724 9.42059 24.2659 8.79915 25.141 8.15651C25.1938 8.11773 25.7859 7.61523 25.3527 7.87513C24.683 8.27692 23.9904 8.64083 23.3189 9.03966C22.8625 9.31076 22.6279 9.78256 22.4302 10.2627C22.2537 10.6914 22.27 11.1467 21.8479 11.391C21.4559 11.618 20.9572 11.4344 20.6667 11.8702" stroke="#7CA164" stroke-linecap="round"/>
<path d="M23.6755 9.61357C23.2719 10.0006 22.964 10.4755 22.5723 10.8673" stroke="#7CA164" stroke-linecap="round"/>
</g>
<defs>
<clipPath id="clip0_1_12">
<rect width="34" height="31" fill="white"/>
</clipPath>
</defs>
</svg>
