<svg width="34" height="31" viewBox="0 0 34 31" fill="none" xmlns="http://www.w3.org/2000/svg">
<path d="M21.9545 19.685L23.7515 19.1275M24.7872 18.8061L26.2374 18.3562M21.9415 11.2191L22.3313 11.0368L21.6995 12.4336L20.0719 12.0933L20.3273 11.9739L20.7467 11.7777L20.5833 11.3445C20.3365 10.6898 19.7908 9.98548 19.2798 9.32583C19.2549 9.2937 19.2301 9.26168 19.2055 9.22978C18.645 8.50545 18.1116 7.80182 17.8166 7.10757C17.6797 6.78529 17.5535 6.49811 17.4455 6.26713C17.2822 5.91796 17.0841 5.6433 16.8564 5.45428C16.9785 5.43511 17.109 5.42252 17.2441 5.42024C17.6868 5.41278 18.1448 5.51564 18.5302 5.82081L19.0624 6.24225L21.2768 10.9779L21.4886 11.4309L21.9415 11.2191ZM16.7794 7.22633L14.0727 10.6445L12.9824 9.78117L15.6403 6.42462C15.7671 6.26454 15.9342 6.16168 16.0461 6.15531L16.0466 6.15529C16.0786 6.15344 16.2829 6.14171 16.5396 6.6907C16.6104 6.84205 16.6911 7.02258 16.7794 7.22633ZM10.8951 10.169L10.8071 9.74782L12.0218 10.683L11.3175 12.1892L11.2598 11.9133L11.1651 11.46L10.7059 11.5198C10.0254 11.6083 9.16081 11.9033 8.31987 12.1902L8.2605 12.2104C7.37106 12.5138 6.48541 12.8135 5.71376 12.9464C5.36868 13.0058 5.06022 13.0628 4.81063 13.115C4.58143 13.1629 4.37605 13.2296 4.19719 13.3146C4.30011 12.9166 4.50232 12.5343 4.85866 12.2521L5.39088 11.8307L10.508 10.7608L10.9975 10.6584L10.8951 10.169ZM20.929 20.7137C22.4112 20.6766 23.9819 20.6275 24.9116 20.51L24.9169 20.5164L25.2001 20.4677C25.5452 20.4083 25.8536 20.3513 26.1032 20.2991L26.0009 19.8097L26.1032 20.2991C26.3324 20.2512 26.5378 20.1844 26.7167 20.0994C26.6137 20.4975 26.4115 20.8797 26.0552 21.1619L25.523 21.5834L23.0728 22.0956L16.9925 22.0956L16.4925 22.0956L16.4925 22.5956L16.4925 24.1471C16.0233 23.9208 15.4786 23.5952 14.8979 23.2068C14.0365 22.6305 13.1361 21.9436 12.3526 21.3126C11.8334 20.8945 11.3682 20.5031 11.003 20.1879L16.4925 18.403L16.4925 20.3653L16.4925 20.9345L17.057 20.8611C17.5707 20.7943 18.7984 20.7649 20.2015 20.7313C20.4398 20.7256 20.6832 20.7198 20.929 20.7137ZM25.8986 19.3202C25.7327 19.3549 25.5353 19.3926 25.3129 19.4326L21.5476 14.9452L22.6382 14.0816L26.3678 18.5111C26.4918 18.67 26.552 18.8535 26.5328 18.9626L26.5327 18.9631C26.5272 18.9947 26.4918 19.1962 25.8986 19.3202ZM9.354 18.7249L8.31117 19.6426L4.55016 14.9082C4.55002 14.908 4.54989 14.9078 4.54976 14.9077C4.42326 14.7477 4.36161 14.5617 4.38103 14.4515L4.38111 14.451C4.38667 14.4194 4.42207 14.2178 5.01529 14.0938C5.1789 14.0596 5.37322 14.0224 5.59194 13.9831L9.354 18.7249Z" fill="black" stroke="black"/>
</svg>
